<svg width="16" height="16" viewBox="0 0 16 16" fill="none" xmlns="http://www.w3.org/2000/svg">
<style>path { fill: #878886 !important; }</style>
<path d="M8 0C6.41775 0 4.87103 0.469192 3.55544 1.34824C2.23985 2.22729 1.21447 3.47672 0.608967 4.93853C0.00346628 6.40034 -0.15496 8.00887 0.153721 9.56072C0.462403 11.1126 1.22433 12.538 2.34315 13.6569C3.46197 14.7757 4.88743 15.5376 6.43928 15.8463C7.99113 16.155 9.59966 15.9965 11.0615 15.391C12.5233 14.7855 13.7727 13.7602 14.6518 12.4446C15.5308 11.129 16 9.58225 16 8C15.9978 5.87895 15.1542 3.84542 13.6544 2.34562C12.1546 0.845814 10.121 0.00223986 8 0ZM5.23077 5.53846C5.41334 5.53846 5.59181 5.5926 5.74361 5.69403C5.8954 5.79546 6.01372 5.93962 6.08358 6.10829C6.15345 6.27696 6.17173 6.46256 6.13611 6.64162C6.10049 6.82068 6.01258 6.98516 5.88349 7.11425C5.75439 7.24335 5.58991 7.33126 5.41085 7.36688C5.2318 7.40249 5.0462 7.38421 4.87753 7.31435C4.70886 7.24448 4.56469 7.12617 4.46326 6.97437C4.36183 6.82257 4.30769 6.6441 4.30769 6.46154C4.30769 6.21672 4.40495 5.98193 4.57806 5.80882C4.75117 5.63571 4.98596 5.53846 5.23077 5.53846ZM11.6092 10.1538C10.8177 11.5223 9.50231 12.3077 8 12.3077C6.49769 12.3077 5.18231 11.5231 4.39077 10.1538C4.34625 10.0838 4.31635 10.0055 4.30288 9.92358C4.28941 9.84169 4.29264 9.75791 4.31239 9.6773C4.33214 9.59668 4.36798 9.5209 4.41778 9.4545C4.46757 9.3881 4.53028 9.33246 4.60214 9.29092C4.67399 9.24939 4.75351 9.22282 4.8359 9.21281C4.91829 9.2028 5.00185 9.20957 5.08156 9.23269C5.16127 9.25581 5.23548 9.29482 5.29972 9.34737C5.36397 9.39992 5.41692 9.46492 5.45539 9.53846C6.03 10.5315 6.93308 11.0769 8 11.0769C9.06692 11.0769 9.97 10.5308 10.5446 9.53846C10.5831 9.46492 10.636 9.39992 10.7003 9.34737C10.7645 9.29482 10.8387 9.25581 10.9184 9.23269C10.9981 9.20957 11.0817 9.2028 11.1641 9.21281C11.2465 9.22282 11.326 9.24939 11.3979 9.29092C11.4697 9.33246 11.5324 9.3881 11.5822 9.4545C11.632 9.5209 11.6679 9.59668 11.6876 9.6773C11.7074 9.75791 11.7106 9.84169 11.6971 9.92358C11.6837 10.0055 11.6538 10.0838 11.6092 10.1538ZM10.7692 7.38461C10.5867 7.38461 10.4082 7.33048 10.2564 7.22905C10.1046 7.12762 9.98629 6.98345 9.91642 6.81478C9.84655 6.64611 9.82827 6.46051 9.86389 6.28145C9.89951 6.10239 9.98742 5.93792 10.1165 5.80882C10.2456 5.67973 10.4101 5.59181 10.5891 5.5562C10.7682 5.52058 10.9538 5.53886 11.1225 5.60873C11.2911 5.67859 11.4353 5.7969 11.5367 5.9487C11.6382 6.1005 11.6923 6.27897 11.6923 6.46154C11.6923 6.70635 11.5951 6.94114 11.4219 7.11425C11.2488 7.28736 11.014 7.38461 10.7692 7.38461Z" fill="#3F527C"/>
</svg>
