<svg width="32" height="32" viewBox="0 0 32 32" fill="none" xmlns="http://www.w3.org/2000/svg">
<path d="M11 28C15.4183 28 19 24.4183 19 20C19 15.5817 15.4183 12 11 12C6.58172 12 3 15.5817 3 20C3 24.4183 6.58172 28 11 28Z" stroke="black" stroke-width="1.5" stroke-linecap="round" stroke-linejoin="round"/>
<path d="M14 17C14 17 13 18 11 18C9 18 8 17 8 17" stroke="black" stroke-width="1.5" stroke-linecap="round" stroke-linejoin="round"/>
<path d="M25 15C25 15 24 16 22 16C20 16 19 15 19 15" stroke="black" stroke-width="1.5" stroke-linecap="round" stroke-linejoin="round"/>
<path d="M22 15.9972C21 1.9972 7 3.9972 7 3.9972C13 7.9972 11 17.9972 11 17.9972" stroke="black" stroke-width="1.5" stroke-linecap="round" stroke-linejoin="round"/>
<path d="M15.4766 13.3763C16.3878 12.093 17.6574 11.1069 19.1263 10.5416C20.5953 9.97629 22.1984 9.85687 23.7349 10.1983C25.2714 10.5397 26.673 11.3268 27.7643 12.461C28.8557 13.5952 29.5882 15.0261 29.8701 16.5747C30.1521 18.1232 29.971 19.7205 29.3495 21.1666C28.7281 22.6126 27.6938 23.8433 26.3763 24.7044C25.0588 25.5655 23.5165 26.0188 21.9425 26.0076C20.3686 25.9964 18.8329 25.5211 17.5278 24.6413" stroke="black" stroke-width="1.5" stroke-linecap="round" stroke-linejoin="round"/>
</svg>
